REM DIRINDEX 1\8,1\2\11,1\3\12,1\3\14,1\5\15,1\5\16,1\6\17,1\6\18,1\4\19,1\4\20,1\4\21,1\4\22,1\7\23,1\7\24,1\7\25,1\2\9\26,1\2\9\27,1\2\10\28,1\2\10\29,1\2\10\30,1\2\10\31,1\2\10\32,1\3\13\33,1\3\13\34,1\3\13\35
REM DIRNAME cjc123,folder01,folder02,folder03,folder04,folder05,folder06,folder07,folder08,folder09,folder10,folder11,folder12,folder13,folder14,folder15,folder16,folder17,folder18,folder19,folder20,folder21,folder22,folder23,folder24,folder25,folder26,folder27,folder28,folder29,folder30,folder31,folder32,folder33,folder34
TITLE ""
FILE "135 135_—á•¶UNIT3_SET1.mp3" MP3
  TRACK 01 AUDIO
    TITLE "22:cjc123_3188"
    INDEX 01 00:00:00
  TRACK 02 AUDIO
    TITLE "0:"
    INDEX 01 00:02:47
  TRACK 03 AUDIO
    TITLE "19:cjc123_3189"
    INDEX 01 00:03:27
  TRACK 04 AUDIO
    TITLE "0:"
    INDEX 01 00:06:00
  TRACK 05 AUDIO
    TITLE "20:cjc123_3190"
    INDEX 01 00:06:30
  TRACK 06 AUDIO
    TITLE "0:"
    INDEX 01 00:09:47
  TRACK 07 AUDIO
    TITLE "21:cjc123_3191"
    INDEX 01 00:10:00
  TRACK 08 AUDIO
    TITLE "0:"
    INDEX 01 00:12:48
  TRACK 09 AUDIO
    TITLE "19:cjc123_3192"
    INDEX 01 00:13:24
  TRACK 10 AUDIO
    TITLE "0:"
    INDEX 01 00:16:04
  TRACK 11 AUDIO
    TITLE "20:cjc123_3193"
    INDEX 01 00:16:51
  TRACK 12 AUDIO
    TITLE "0:"
    INDEX 01 00:19:22
  TRACK 13 AUDIO
    TITLE "21:cjc123_3194"
    INDEX 01 00:19:54
  TRACK 14 AUDIO
    TITLE "0:"
    INDEX 01 00:22:36
  TRACK 15 AUDIO
    TITLE "19:cjc123_3195"
    INDEX 01 00:23:26
  TRACK 16 AUDIO
    TITLE "0:"
    INDEX 01 00:27:10
  TRACK 17 AUDIO
    TITLE "20:cjc123_3196"
    INDEX 01 00:27:43
  TRACK 18 AUDIO
    TITLE "0:"
    INDEX 01 00:32:05
  TRACK 19 AUDIO
    TITLE "21:cjc123_3197"
    INDEX 01 00:32:35
  TRACK 20 AUDIO
    TITLE "0:"
    INDEX 01 00:36:17
  TRACK 21 AUDIO
    TITLE "19:cjc123_3198"
    INDEX 01 00:36:72
  TRACK 22 AUDIO
    TITLE "0:"
    INDEX 01 00:39:74
  TRACK 23 AUDIO
    TITLE "20:cjc123_3199"
    INDEX 01 00:40:34
  TRACK 24 AUDIO
    TITLE "0:"
    INDEX 01 00:43:68
  TRACK 25 AUDIO
    TITLE "21:cjc123_3200"
    INDEX 01 00:44:24
  TRACK 26 AUDIO
    TITLE "0:"
    INDEX 01 00:47:28
  TRACK 27 AUDIO
    TITLE "19:cjc123_3201"
    INDEX 01 00:48:02
  TRACK 28 AUDIO
    TITLE "0:"
    INDEX 01 00:50:52
  TRACK 29 AUDIO
    TITLE "20:cjc123_3202"
    INDEX 01 00:51:07
  TRACK 30 AUDIO
    TITLE "0:"
    INDEX 01 00:54:44
  TRACK 31 AUDIO
    TITLE "21:cjc123_3203"
    INDEX 01 00:54:72
  TRACK 32 AUDIO
    TITLE "0:"
    INDEX 01 00:57:48
  TRACK 33 AUDIO
    TITLE "19:cjc123_3204"
    INDEX 01 00:58:22
  TRACK 34 AUDIO
    TITLE "0:"
    INDEX 01 01:01:72
  TRACK 35 AUDIO
    TITLE "20:cjc123_3205"
    INDEX 01 01:02:46
  TRACK 36 AUDIO
    TITLE "0:"
    INDEX 01 01:06:26
  TRACK 37 AUDIO
    TITLE "21:cjc123_3206"
    INDEX 01 01:06:55
  TRACK 38 AUDIO
    TITLE "0:"
    INDEX 01 01:10:31
  TRACK 39 AUDIO
    TITLE "19:cjc123_3207"
    INDEX 01 01:11:23
  TRACK 40 AUDIO
    TITLE "0:"
    INDEX 01 01:14:31
  TRACK 41 AUDIO
    TITLE "20:cjc123_3208"
    INDEX 01 01:14:63
  TRACK 42 AUDIO
    TITLE "0:"
    INDEX 01 01:18:33
  TRACK 43 AUDIO
    TITLE "21:cjc123_3209"
    INDEX 01 01:18:60
  TRACK 44 AUDIO
    TITLE "0:"
    INDEX 01 01:21:69
  TRACK 45 AUDIO
    TITLE "19:cjc123_3210"
    INDEX 01 01:22:46
  TRACK 46 AUDIO
    TITLE "0:"
    INDEX 01 01:25:72
  TRACK 47 AUDIO
    TITLE "20:cjc123_3211"
    INDEX 01 01:26:32
  TRACK 48 AUDIO
    TITLE "0:"
    INDEX 01 01:30:38
  TRACK 49 AUDIO
    TITLE "21:cjc123_3212"
    INDEX 01 01:30:67
  TRACK 50 AUDIO
    TITLE "0:"
    INDEX 01 01:34:18
  TRACK 51 AUDIO
    TITLE "19:cjc123_3213"
    INDEX 01 01:34:65
  TRACK 52 AUDIO
    TITLE "0:"
    INDEX 01 01:39:35
  TRACK 53 AUDIO
    TITLE "20:cjc123_3214"
    INDEX 01 01:39:68
  TRACK 54 AUDIO
    TITLE "0:"
    INDEX 01 01:44:11
  TRACK 55 AUDIO
    TITLE "21:cjc123_3215"
    INDEX 01 01:44:40
  TRACK 56 AUDIO
    TITLE "0:"
    INDEX 01 01:49:08
  TRACK 57 AUDIO
    TITLE "19:cjc123_3216"
    INDEX 01 01:49:59
  TRACK 58 AUDIO
    TITLE "0:"
    INDEX 01 01:54:15
  TRACK 59 AUDIO
    TITLE "20:cjc123_3217"
    INDEX 01 01:54:58
  TRACK 60 AUDIO
    TITLE "0:"
    INDEX 01 02:00:47
  TRACK 61 AUDIO
    TITLE "21:cjc123_3218"
    INDEX 01 02:00:72
  TRACK 62 AUDIO
    TITLE "0:"
    INDEX 01 02:05:27
  TRACK 63 AUDIO
    TITLE "19:cjc123_3219"
    INDEX 01 02:06:10
  TRACK 64 AUDIO
    TITLE "0:"
    INDEX 01 02:10:20
  TRACK 65 AUDIO
    TITLE "20:cjc123_3220"
    INDEX 01 02:10:53
  TRACK 66 AUDIO
    TITLE "0:"
    INDEX 01 02:16:07
  TRACK 67 AUDIO
    TITLE "21:cjc123_3221"
    INDEX 01 02:16:36
  TRACK 68 AUDIO
    TITLE "0:"
    INDEX 01 02:20:48
  TRACK 69 AUDIO
    TITLE "19:cjc123_3222"
    INDEX 01 02:21:20
  TRACK 70 AUDIO
    TITLE "0:"
    INDEX 01 02:25:20
  TRACK 71 AUDIO
    TITLE "20:cjc123_3223"
    INDEX 01 02:25:49
  TRACK 72 AUDIO
    TITLE "0:"
    INDEX 01 02:30:34
  TRACK 73 AUDIO
    TITLE "21:cjc123_3224"
    INDEX 01 02:30:60
  TRACK 74 AUDIO
    TITLE "0:"
    INDEX 01 02:34:56
  TRACK 75 AUDIO
    TITLE "19:cjc123_3225"
    INDEX 01 02:35:30
  TRACK 76 AUDIO
    TITLE "0:"
    INDEX 01 02:40:03
  TRACK 77 AUDIO
    TITLE "20:cjc123_3226"
    INDEX 01 02:40:35
  TRACK 78 AUDIO
    TITLE "0:"
    INDEX 01 02:45:30
  TRACK 79 AUDIO
    TITLE "21:cjc123_3227"
    INDEX 01 02:45:56
  TRACK 80 AUDIO
    TITLE "0:"
    INDEX 01 02:50:29
  TRACK 81 AUDIO
    TITLE "19:cjc123_3228"
    INDEX 01 02:51:11
  TRACK 82 AUDIO
    TITLE "0:"
    INDEX 01 02:56:24
  TRACK 83 AUDIO
    TITLE "20:cjc123_3229"
    INDEX 01 02:56:59
  TRACK 84 AUDIO
    TITLE "0:"
    INDEX 01 03:01:74
  TRACK 85 AUDIO
    TITLE "21:cjc123_3230"
    INDEX 01 03:02:25
  TRACK 86 AUDIO
    TITLE "0:"
    INDEX 01 03:07:38
  TRACK 87 AUDIO
    TITLE "19:cjc123_3231"
    INDEX 01 03:08:15
  TRACK 88 AUDIO
    TITLE "0:"
    INDEX 01 03:11:43
  TRACK 89 AUDIO
    TITLE "20:cjc123_3232"
    INDEX 01 03:11:69
  TRACK 90 AUDIO
    TITLE "0:"
    INDEX 01 03:16:07
  TRACK 91 AUDIO
    TITLE "21:cjc123_3233"
    INDEX 01 03:16:35
  TRACK 92 AUDIO
    TITLE "0:"
    INDEX 01 03:19:62
